<?xml version="1.0" standalone="no"?>
<!DOCTYPE svg PUBLIC "-//W3C//DTD SVG 20010904//EN"
 "http://www.w3.org/TR/2001/REC-SVG-20010904/DTD/svg10.dtd">
<svg version="1.0" xmlns="http://www.w3.org/2000/svg"
 width="260.000000pt" height="260.000000pt" viewBox="0 0 260.000000 260.000000"
 preserveAspectRatio="xMidYMid meet">
<metadata>
Created by potrace 1.11, written by Peter Selinger 2001-2013
</metadata>
<g transform="translate(0.000000,260.000000) scale(0.100000,-0.100000)"
fill="#000000" stroke="none">
<path d="M0 1300 l0 -1300 1300 0 1300 0 0 1300 0 1300 -1300 0 -1300 0 0
-1300z m1670 931 c0 -5 24 -15 53 -21 105 -24 205 -117 255 -240 22 -55 22
-62 22 -526 0 -398 -2 -473 -15 -490 -8 -10 -15 -27 -15 -37 0 -46 -99 -155
-173 -193 -101 -50 -137 -54 -529 -54 -270 0 -367 -3 -376 -12 -8 -8 -12 -57
-12 -155 l0 -143 -150 0 -150 0 0 940 0 940 545 0 c329 0 545 -4 545 -9z"/>
<path d="M896 1904 c-14 -14 -16 -68 -16 -452 0 -258 4 -443 10 -452 8 -13 56
-15 310 -18 325 -3 387 3 432 43 55 48 58 67 58 430 0 357 -2 376 -53 423 -13
12 -39 27 -58 32 -19 6 -175 10 -351 10 -274 0 -319 -2 -332 -16z"/>
</g>
</svg>
